<svg xmlns="http://www.w3.org/2000/svg" width="263" height="38" viewBox="0 0 263 38"><g id="a/logo/light" fill="none" fill-rule="evenodd" stroke="none" stroke-width="1"><path id="Fill-1" fill="#ffffff" d="M6.013 16.715H7.91c.657 0 1.183-.082 1.573-.246.389-.164.757-.446 1.104-.844L22.979 1.61c.382-.433.75-.74 1.105-.922.356-.183.809-.273 1.363-.273h4.287L15.55 16.43a12.39 12.39 0 01-1.026 1.012 4.53 4.53 0 01-1.027.674c.485.157.91.39 1.273.703.363.31.745.7 1.144 1.167l14.81 17.624h-4.365a3.82 3.82 0 01-.832-.077 2.372 2.372 0 01-.585-.209 1.828 1.828 0 01-.453-.337 9.735 9.735 0 01-.417-.442L11.21 21.778a7.246 7.246 0 00-.533-.533 2.444 2.444 0 00-1.324-.597 7.271 7.271 0 00-1.053-.064H6.013V37.61H1V.415h5.013v16.3z"></path><path id="Fill-3" fill="#ffffff" d="M43.038 37.61h5.04V.416h-5.04z"></path><path id="Fill-4" fill="#ffffff" d="M67.89.584c.216.113.463.342.739.69l21.567 28.03c-.053-.45-.087-.886-.106-1.31a30.039 30.039 0 01-.024-1.233V.416h4.416V37.61h-2.546c-.4 0-.733-.07-1-.207-.27-.14-.533-.373-.793-.7L68.604 8.694c.034.433.06.857.078 1.272.017.416.027.796.027 1.143v26.5H64.29V.416h2.598c.451 0 .784.055 1 .168"></path><path id="Fill-6" fill="#ffffff" d="M132.754.416v4.1h-17.877v12.356h14.472v3.945h-14.472V33.51h17.877v4.1H109.81V.416z"></path><path id="Fill-7" fill="#ffffff" d="M219.687 19.026c0 2.786-.44 5.342-1.323 7.67-.884 2.327-2.131 4.33-3.742 6.008-1.611 1.68-3.545 2.981-5.806 3.906-2.26.927-4.76 1.39-7.498 1.39-2.735 0-5.23-.463-7.482-1.39-2.252-.925-4.182-2.226-5.794-3.906-1.61-1.678-2.858-3.681-3.741-6.008-.884-2.328-1.325-4.884-1.325-7.67 0-2.786.441-5.342 1.325-7.67.883-2.328 2.13-4.334 3.74-6.022 1.613-1.687 3.543-2.997 5.795-3.933C196.088.467 198.583 0 201.318 0c2.738 0 5.237.467 7.498 1.401 2.26.936 4.195 2.246 5.806 3.933 1.611 1.688 2.858 3.694 3.742 6.022.882 2.328 1.323 4.884 1.323 7.67m-5.17 0c0-2.285-.31-4.336-.934-6.152-.624-1.816-1.507-3.352-2.652-4.607-1.142-1.254-2.527-2.22-4.157-2.894-1.626-.674-3.446-1.013-5.456-1.013-1.99 0-3.802.339-5.43 1.013a11.621 11.621 0 00-4.169 2.894c-1.152 1.255-2.04 2.79-2.664 4.607-.622 1.816-.934 3.867-.934 6.152 0 2.283.312 4.33.934 6.137.623 1.81 1.512 3.342 2.664 4.596a11.449 11.449 0 004.17 2.88c1.627.667 3.438.999 5.429.999 2.01 0 3.83-.332 5.456-1 1.63-.664 3.015-1.624 4.157-2.88 1.145-1.253 2.028-2.785 2.652-4.595.624-1.806.935-3.854.935-6.137"></path><path id="Fill-9" fill="#ffffff" d="M236.408.584c.216.113.462.342.74.69l21.566 28.03c-.053-.45-.087-.886-.105-1.31a30.04 30.04 0 01-.025-1.233V.416H263V37.61h-2.546c-.399 0-.732-.07-1-.207-.27-.14-.532-.373-.793-.7L237.123 8.694a33.355 33.355 0 01.104 2.415v26.5h-4.418V.416h2.598c.45 0 .784.055 1 .168"></path><path id="Fill-11" fill="#00A7E3" d="M162.542 20.585h-6.087L142.44 37.547h5.421c.638 0 1.243-.278 1.66-.759l8.449-9.781c.381-.449.7-.878.953-1.288a4.7 4.7 0 00.574-1.431c.128.544.319 1.023.574 1.431.253.41.573.84.954 1.288l8.448 9.781c.418.481 1.023.76 1.66.76h5.422l-14.014-16.963z"></path><path id="Fill-13" fill="#00A7E3" d="M170.555.416c-.637 0-1.242.277-1.66.759l-7.869 9.11c-.381.45-.7.879-.954 1.287a4.721 4.721 0 00-.574 1.433 4.67 4.67 0 00-.574-1.433 10.894 10.894 0 00-.953-1.287l-7.992-9.251a1.787 1.787 0 00-1.352-.618h-5.633l13.46 16.291h6.088L176.002.416h-5.447z"></path></g></svg>